<?xml version="1.0" encoding="utf-8"?>
<!-- Generator: Adobe Illustrator 17.0.0, SVG Export Plug-In . SVG Version: 6.00 Build 0)  -->
<!DOCTYPE svg PUBLIC "-//W3C//DTD SVG 1.1//EN" "http://www.w3.org/Graphics/SVG/1.1/DTD/svg11.dtd">
<svg version="1.1" id="Layer_1" xmlns="http://www.w3.org/2000/svg" xmlns:xlink="http://www.w3.org/1999/xlink" x="0px" y="0px"
	 width="381.667px" height="153.667px" viewBox="0 0 381.667 153.667" enable-background="new 0 0 381.667 153.667"
	 xml:space="preserve">
<g>
	<polygon fill-rule="evenodd" clip-rule="evenodd" fill="#FFFFFE" points="16.439,21.922 0.834,1 0.808,21.922 	"/>
	<polygon fill-rule="evenodd" clip-rule="evenodd" fill="#FFFFFE" points="22.74,30.368 0.798,30.368 0.769,54.169 40.493,54.169 	
		"/>
	<polygon fill-rule="evenodd" clip-rule="evenodd" fill="#FFFFFE" points="0.753,67.246 0.7,110.094 82.209,110.094 50.247,67.246 	
		"/>
</g>
<path fill="#FFFFFE" d="M146.623,54.449c-0.15-2.513-1.482-4.439-3.403-5.769c-1.777-1.477-4.142-2.218-6.51-2.218
	c-4.144,0-8.875,0.888-8.875,5.918c0,2.217,1.772,3.251,3.4,3.994c4.884,2.07,15.979,2.662,25.742,5.915
	c9.764,3.106,18.344,8.877,18.344,21.45c0,21.301-20.416,27.069-39.053,27.069c-18.047,0-37.874-7.249-38.315-27.069h27.957
	c0.15,2.66,1.332,4.88,3.553,6.803c1.477,1.332,4.289,2.219,7.842,2.219c3.842,0,9.91-1.479,9.91-5.918
	c0-4.436-2.515-5.768-16.126-8.134c-22.338-3.846-31.362-10.945-31.362-24.112c0-19.377,20.86-24.406,36.247-24.406
	c16.565,0,36.538,4.585,37.275,24.259H146.623z"/>
<path fill="#FFFFFE" d="M299.398,91.725c0,5.768,0.297,12.276,3.548,17.159h-29.882c-0.741-2.073-1.182-5.177-1.035-7.249h-0.294
	c-6.215,7.103-15.237,9.172-24.709,9.172c-14.793,0-27.072-7.099-27.072-23.224c0-24.261,28.404-23.373,43.346-26.182
	c3.995-0.741,7.987-1.923,7.987-6.805c0-5.177-4.88-7.101-9.613-7.101c-9.025,0-10.801,4.587-10.947,7.842h-27.219
	c0.888-21.597,21.301-25.146,39.498-25.146c36.688,0,36.391,15.235,36.391,30.026V91.725z M271.289,74.417
	c-3.548,1.778-7.543,2.813-11.539,3.697c-6.508,1.482-9.91,3.11-9.91,8.284c0,3.551,3.848,7.099,9.172,7.099
	c6.655,0,11.832-3.995,12.276-11.979V74.417z"/>
<path fill="#FFFFFE" d="M335.731,121.332h4.88c5.918,0,8.137-2.069,8.137-9.466V32.111h29.288v82.568
	c0,12.273-0.738,19.673-6.803,24.849c-5.477,4.733-14.793,5.03-21.748,5.177h-13.755V121.332z"/>
<rect x="348.748" y="3.27" fill="#FFFFFE" width="29.288" height="20.56"/>
<g>
	<path fill="#FFFFFF" d="M7.368,126.663H0.906v-2.621h15.903v2.621h-6.463v18.166H7.368V126.663z"/>
	<path fill="#FFFFFF" d="M18.923,129.641h2.621v2.352h0.06c0.745-1.577,2.353-2.709,3.961-2.709c0.834,0,1.251,0.089,1.847,0.208
		v2.501c-0.507-0.208-1.072-0.267-1.549-0.267c-2.501,0-4.139,2.383-4.139,6.194v6.91h-2.8V129.641z"/>
	<path fill="#FFFFFF" d="M30.627,130.714c1.4-0.834,3.067-1.43,5.003-1.43c4.348,0,6.105,2.144,6.105,6.284v6.283
		c0,1.728,0.06,2.532,0.119,2.979h-2.621v-1.965h-0.059c-0.655,0.923-2.145,2.322-4.705,2.322c-3.277,0-5.57-1.428-5.57-4.734
		c0-3.812,4.17-5.004,7.058-5.004c1.102,0,1.877,0,2.978,0.06c0-2.621-0.953-3.961-3.753-3.961c-1.578,0-3.276,0.596-4.408,1.548
		L30.627,130.714z M38.936,137.592c-0.595,0-1.191-0.06-1.786-0.06c-1.519,0-5.272,0.239-5.272,2.919
		c0,1.609,1.549,2.472,2.83,2.472c2.77,0,4.229-1.728,4.229-3.991V137.592z"/>
	<path fill="#FFFFFF" d="M46.471,129.641h2.71v2.412h0.06c0.833-1.727,2.859-2.769,4.973-2.769c3.931,0,5.688,2.442,5.688,6.522
		v9.023h-2.799v-7.862c0-3.545-0.774-5.272-3.217-5.421c-3.187,0-4.616,2.562-4.616,6.254v7.029h-2.8V129.641z"/>
	<path fill="#FFFFFF" d="M63.535,141.851c1.102,0.715,2.68,1.073,3.485,1.073c1.28,0,2.859-0.536,2.859-2.174
		c0-2.771-6.582-2.532-6.582-6.79c0-3.158,2.353-4.676,5.36-4.676c1.31,0,2.382,0.268,3.485,0.595l-0.238,2.442
		c-0.626-0.386-2.294-0.774-2.949-0.774c-1.429,0-2.68,0.596-2.68,1.847c0,3.097,6.582,2.204,6.582,7.058
		c0,3.247-2.591,4.734-5.302,4.734c-1.429,0-2.888-0.149-4.169-0.833L63.535,141.851z"/>
	<path fill="#FFFFFF" d="M76.252,129.641h2.68v2.144h0.06c0.745-1.131,2.472-2.501,5.152-2.501c4.408,0,6.551,3.603,6.551,7.684
		c0,4.168-1.935,8.218-6.521,8.218c-2.68,0-4.199-1.043-5.063-2.441h-0.06v8.339h-2.8V129.641z M83.548,131.547
		c-3.038,0-4.496,2.889-4.496,5.718c0,2.532,1.31,5.659,4.467,5.659c3.008,0,4.258-3.366,4.199-5.748
		C87.777,134.436,86.586,131.547,83.548,131.547z"/>
	<path fill="#FFFFFF" d="M101.178,129.284c4.616,0,7.713,3.335,7.713,7.952c0,4.347-3.156,7.951-7.713,7.951
		c-4.586,0-7.743-3.603-7.743-7.951C93.435,132.619,96.532,129.284,101.178,129.284z M101.178,142.924
		c3.276,0,4.735-2.979,4.735-5.688c0-2.89-1.757-5.689-4.735-5.689c-3.008,0-4.765,2.799-4.765,5.689
		C96.413,139.945,97.872,142.924,101.178,142.924z"/>
	<path fill="#FFFFFF" d="M112.643,129.641h2.621v2.352h0.06c0.745-1.577,2.353-2.709,3.961-2.709c0.834,0,1.251,0.089,1.847,0.208
		v2.501c-0.507-0.208-1.072-0.267-1.549-0.267c-2.501,0-4.139,2.383-4.139,6.194v6.91h-2.8V129.641z"/>
	<path fill="#FFFFFF" d="M132.299,131.904h-4.02v8.309c0,1.757,1.072,2.711,2.353,2.711c0.864,0,1.489-0.268,1.906-0.536v2.382
		c-0.625,0.179-1.489,0.416-2.382,0.416c-2.888,0-4.676-1.37-4.676-4.407v-8.875h-3.425v-2.263h3.425v-3.515l2.8-0.893v4.408h4.02
		V131.904z"/>
	<path fill="#FFFFFF" d="M159.906,127.467c-1.31-0.775-2.77-1.161-4.289-1.161c-4.794,0-7.981,3.454-7.981,8.13
		c0,4.884,3.514,8.13,7.833,8.13c1.489,0,3.485-0.387,4.527-1.012l0.178,2.888c-1.578,0.655-3.514,0.744-4.735,0.744
		c-6.582,0-10.96-4.228-10.96-10.84c0-6.402,4.647-10.661,10.99-10.661c1.608,0,3.186,0.239,4.675,0.894L159.906,127.467z"/>
	<path fill="#FFFFFF" d="M170.21,129.284c4.616,0,7.713,3.335,7.713,7.952c0,4.347-3.156,7.951-7.713,7.951
		c-4.586,0-7.743-3.603-7.743-7.951C162.467,132.619,165.564,129.284,170.21,129.284z M170.21,142.924
		c3.276,0,4.735-2.979,4.735-5.688c0-2.89-1.757-5.689-4.735-5.689c-3.008,0-4.765,2.799-4.765,5.689
		C165.445,139.945,166.904,142.924,170.21,142.924z"/>
	<path fill="#FFFFFF" d="M181.676,129.641h2.71v2.412h0.06c0.833-1.727,2.859-2.769,4.972-2.769c3.931,0,5.688,2.442,5.688,6.522
		v9.023h-2.798v-7.862c0-3.545-0.775-5.272-3.217-5.421c-3.187,0-4.616,2.562-4.616,6.254v7.029h-2.8V129.641z"/>
	<path fill="#FFFFFF" d="M198.74,141.851c1.102,0.715,2.68,1.073,3.484,1.073c1.281,0,2.859-0.536,2.859-2.174
		c0-2.771-6.582-2.532-6.582-6.79c0-3.158,2.353-4.676,5.36-4.676c1.31,0,2.383,0.268,3.485,0.595l-0.239,2.442
		c-0.626-0.386-2.293-0.774-2.948-0.774c-1.43,0-2.68,0.596-2.68,1.847c0,3.097,6.582,2.204,6.582,7.058
		c0,3.247-2.592,4.734-5.302,4.734c-1.428,0-2.888-0.149-4.168-0.833L198.74,141.851z"/>
	<path fill="#FFFFFF" d="M224.887,144.83h-2.709v-2.412h-0.06c-0.834,1.727-2.859,2.769-4.973,2.769
		c-3.931,0-5.688-2.441-5.688-6.521v-9.024h2.8v7.862c0,3.544,0.773,5.272,3.216,5.42c3.185,0,4.615-2.561,4.615-6.254v-7.028h2.8
		V144.83z"/>
	<path fill="#FFFFFF" d="M230.009,122.494h2.8v22.336h-2.8V122.494z"/>
	<path fill="#FFFFFF" d="M246.002,131.904h-4.02v8.309c0,1.757,1.071,2.711,2.353,2.711c0.863,0,1.488-0.268,1.906-0.536v2.382
		c-0.626,0.179-1.489,0.416-2.383,0.416c-2.888,0-4.675-1.37-4.675-4.407v-8.875h-3.426v-2.263h3.426v-3.515l2.8-0.893v4.408h4.02
		V131.904z"/>
	<path fill="#FFFFFF" d="M250.229,130.714c1.401-0.834,3.067-1.43,5.004-1.43c4.349,0,6.106,2.144,6.106,6.284v6.283
		c0,1.728,0.058,2.532,0.118,2.979h-2.621v-1.965h-0.06c-0.655,0.923-2.144,2.322-4.705,2.322c-3.276,0-5.569-1.428-5.569-4.734
		c0-3.812,4.17-5.004,7.058-5.004c1.102,0,1.877,0,2.979,0.06c0-2.621-0.954-3.961-3.753-3.961c-1.578,0-3.276,0.596-4.407,1.548
		L250.229,130.714z M258.54,137.592c-0.595,0-1.193-0.06-1.788-0.06c-1.518,0-5.27,0.239-5.27,2.919
		c0,1.609,1.548,2.472,2.829,2.472c2.769,0,4.229-1.728,4.229-3.991V137.592z"/>
	<path fill="#FFFFFF" d="M266.074,129.641h2.711v2.412h0.06c0.834-1.727,2.859-2.769,4.973-2.769c3.931,0,5.688,2.442,5.688,6.522
		v9.023h-2.8v-7.862c0-3.545-0.774-5.272-3.216-5.421c-3.187,0-4.617,2.562-4.617,6.254v7.029h-2.8V129.641z"/>
	<path fill="#FFFFFF" d="M292.34,131.904h-4.021v8.309c0,1.757,1.073,2.711,2.354,2.711c0.863,0,1.488-0.268,1.906-0.536v2.382
		c-0.626,0.179-1.489,0.416-2.383,0.416c-2.888,0-4.675-1.37-4.675-4.407v-8.875h-3.426v-2.263h3.426v-3.515l2.798-0.893v4.408
		h4.021V131.904z"/>
	<path fill="#FFFFFF" d="M294.724,141.851c1.102,0.715,2.68,1.073,3.484,1.073c1.281,0,2.859-0.536,2.859-2.174
		c0-2.771-6.582-2.532-6.582-6.79c0-3.158,2.354-4.676,5.362-4.676c1.31,0,2.382,0.268,3.484,0.595l-0.239,2.442
		c-0.624-0.386-2.293-0.774-2.948-0.774c-1.43,0-2.68,0.596-2.68,1.847c0,3.097,6.582,2.204,6.582,7.058
		c0,3.247-2.591,4.734-5.301,4.734c-1.43,0-2.89-0.149-4.17-0.833L294.724,141.851z"/>
</g>
<circle fill-rule="evenodd" clip-rule="evenodd" fill="#FFFFFF" cx="197.764" cy="74.18" r="9.664"/>
<path fill-rule="evenodd" clip-rule="evenodd" fill="#FFFFFF" d="M333.616,74.18c0,5.34-4.326,9.666-9.662,9.666
	c-5.342,0-9.668-4.326-9.668-9.666c0-5.336,4.326-9.662,9.668-9.662C329.29,64.518,333.616,68.844,333.616,74.18z"/>
</svg>
